<svg id="College_de_Champigny" data-name="College de Champigny" xmlns="http://www.w3.org/2000/svg" viewBox="0 0 136.23 78.31"><defs><style>.cls-1{fill:#999;}.cls-2{fill:#333;}.cls-3{fill:#454545;}.cls-4{fill:#666766;}</style></defs><title>champigny</title><path class="cls-1" d="M170.06,19.76a.86.86,0,0,1,.5-1,4.87,4.87,0,0,0,2.1-3.18,2.9,2.9,0,0,0-2.81-3.8,5,5,0,0,0-2.49.53,10.2,10.2,0,0,0-2.89,2.07l-.81.73c-.35-.57-.06-.87.24-1.15a7,7,0,0,0,1.78-2.78,7,7,0,0,0-.56-6.3A5.49,5.49,0,0,0,162,2.4a10.31,10.31,0,0,0-9.55,1.53,8.79,8.79,0,0,0-3.75,7.5c0,.85,0,.88-.8,1.1,0-.54-.05-1.06,0-1.56a10.47,10.47,0,0,1,3.34-7,10.58,10.58,0,0,1,11.07-2.57,6.52,6.52,0,0,1,4.46,4.67,8.27,8.27,0,0,1-.32,5.22c-.08.2-.14.4-.26.76l.84-.44a6.77,6.77,0,0,1,3.32-.93,3.2,3.2,0,0,1,3,2,4,4,0,0,1,.2,2.76,6.57,6.57,0,0,1-2.79,4A4.12,4.12,0,0,1,170.06,19.76Z" transform="translate(-51.88 -0.84)"/><path class="cls-2" d="M105.61,55.73c-1.76-.64-2-1-1.83-2.28l2.35-1.31c-.28-.19-.42-.3-.57-.38a3.47,3.47,0,0,1-1.85-3,4.34,4.34,0,0,1,2.94-4.66,6,6,0,0,1,4.68.26,2.78,2.78,0,0,0,1.1.27c.71,0,1.43,0,2.2,0V45.8l-1.85.08c.11.31.19.56.29.81a4.08,4.08,0,0,1-3.73,5.65c-.69,0-1.38,0-2.22,0l-.7.9a.75.75,0,0,0,.83.62c1.08,0,2.16.07,3.24.12a6.55,6.55,0,0,1,1.47.15,2.55,2.55,0,0,1,1.58,3.94,4,4,0,0,1-1.63,1.5,8.12,8.12,0,0,1-4.91.84c-.44-.06-.89-.09-1.32-.18-1.4-.28-2.22-.74-2.05-3.05.32-.2.69-.4,1-.64S105.23,56.06,105.61,55.73Zm5.08-7.09c0-.25-.08-.71-.15-1.18a2.4,2.4,0,0,0-1.65-2,1.83,1.83,0,0,0-2.67,1.65,6.91,6.91,0,0,0,0,.91,2.74,2.74,0,0,0,2.28,2.67C110.17,51,110.69,50.62,110.69,48.64Zm-4.17,7.07a11.76,11.76,0,0,0-.45,1.43,1,1,0,0,0,.67,1.27,4.15,4.15,0,0,0,3.74-.3c.73-.44.83-.81.63-1.69a1.89,1.89,0,0,0-1.37-.69C108.7,55.69,107.65,55.71,106.52,55.71Z" transform="translate(-51.88 -0.84)"/><path class="cls-2" d="M66.31,52.56l-.39,2.75a9.43,9.43,0,0,1-3.53,1.11,9.94,9.94,0,0,1-5.15-.52,8.16,8.16,0,0,1-5.11-6.4,9,9,0,0,1,8.32-11.14,12.87,12.87,0,0,1,4.37.35c.43.12.84.27,1.35.44.16,1,0,2,.1,3.14-.54-.46-1-.85-1.42-1.19a5.74,5.74,0,0,0-8.63,2.09,9,9,0,0,0-.42,7.64,5.78,5.78,0,0,0,4.07,3.61A6,6,0,0,0,65.57,53l.55-.48Z" transform="translate(-51.88 -0.84)"/><path class="cls-2" d="M120.28,75.78h-3a7.59,7.59,0,0,0,.43-3.41c0-1.13,0-2.27,0-3.41a7.65,7.65,0,0,0-.36-3.26h2.48l.11,1.46L121,65.79a3.16,3.16,0,0,1,4.28,1.27l.79-1c.11-.13.2-.3.34-.36a3.61,3.61,0,0,1,2.9,0,2.08,2.08,0,0,1,1.16,2.06c0,1.64,0,3.27,0,4.91a6,6,0,0,0,.45,3.08h-3c0-.19.09-.36.11-.53a12,12,0,0,0,.22-1.56c0-1.72,0-3.44,0-5.16,0-.57,0-1.17-.6-1.43a1.77,1.77,0,0,0-1.87.31c-.24.19-.5.36-.7.5.14,2.71-.24,5.26.29,7.85h-2.88a5.49,5.49,0,0,0,.44-3c0-1.41,0-2.82,0-4.24a3.61,3.61,0,0,0,0-.66,1,1,0,0,0-1-.9,1.75,1.75,0,0,0-2.09,1.94c0,1.3,0,2.6,0,3.91A7.13,7.13,0,0,0,120.28,75.78Z" transform="translate(-51.88 -0.84)"/><path class="cls-2" d="M79.24,50.11A6.4,6.4,0,0,1,77.35,55,5,5,0,0,1,75,56.3c-3.58.93-6.54-.73-7.52-4.15a6.71,6.71,0,0,1,1.42-6.44A5.13,5.13,0,0,1,72.09,44a6.22,6.22,0,0,1,4.35.6,5.71,5.71,0,0,1,2.8,4.73C79.26,49.55,79.24,49.83,79.24,50.11Zm-6.85-4.57H72.3c-1.47.18-2.54.76-2.42,2.43.06.83,0,1.67.05,2.49a4.54,4.54,0,0,0,3.65,4.3,2.15,2.15,0,0,0,2.68-1.59,11.5,11.5,0,0,0,.23-1.56,6.08,6.08,0,0,0-1.18-4.54A3.8,3.8,0,0,0,72.39,45.54Z" transform="translate(-51.88 -0.84)"/><path class="cls-2" d="M147.59,76.55l1.64-1.26c-1.11-.27-1.76-.76-1.52-1.89l1.85-1c-.07-.12-.09-.19-.13-.21a3.22,3.22,0,0,1-1.71-3.85,3.67,3.67,0,0,1,3.21-2.83,4.69,4.69,0,0,1,3.46.7h2.19l.06.78-1.41.27a4.26,4.26,0,0,0,.14.54,3.41,3.41,0,0,1-3.25,4.73c-.41,0-.83,0-1.24,0-.66,0-.86.32-.81,1.14a7.33,7.33,0,0,0,1.09.16c.77,0,1.55,0,2.32,0a5.32,5.32,0,0,1,1.06.16,2.13,2.13,0,0,1,1,3.52,4.52,4.52,0,0,1-3.17,1.62,13.09,13.09,0,0,1-3.06-.14C147.85,78.77,147.37,78,147.59,76.55ZM153,71.17c.13-.25.33-.46.34-.68a13,13,0,0,0,0-2.16A2,2,0,0,0,152,66.79a1.49,1.49,0,0,0-2.2,1.13,4.26,4.26,0,0,0-.1.49,2.39,2.39,0,0,0,2.22,2.76C152.24,71.19,152.54,71.17,153,71.17Zm.75,4.61c-.2-.11-.45-.37-.72-.39a7.32,7.32,0,0,0-3,0,2.13,2.13,0,0,0-.24,1.81,3.26,3.26,0,0,0,3.58,0A1.17,1.17,0,0,0,153.71,75.78Z" transform="translate(-51.88 -0.84)"/><path class="cls-2" d="M125.18,50.38h-7a3.74,3.74,0,0,0,1.48,3.95,3.61,3.61,0,0,0,2.91.23,20.13,20.13,0,0,0,2.3-.93l-.93,2.25a15.34,15.34,0,0,1-1.73.52,7,7,0,0,1-3.61-.19,4.48,4.48,0,0,1-3.17-3.9,11.93,11.93,0,0,1,.38-5.1A5.14,5.14,0,0,1,122,43.89a3.37,3.37,0,0,1,1.8,1.14C125,46.56,125.19,48.37,125.18,50.38Zm-2.54-1.57a3.86,3.86,0,0,0-.17-2.23,2.06,2.06,0,0,0-3.17-.9,3.57,3.57,0,0,0-1.07,3.13Z" transform="translate(-51.88 -0.84)"/><path class="cls-2" d="M101.85,50.39h-7A3.77,3.77,0,0,0,96.3,54.3a3.56,3.56,0,0,0,3,.26,18.54,18.54,0,0,0,2.3-.94l-.94,2.25a16.28,16.28,0,0,1-1.66.51,7.11,7.11,0,0,1-3.69-.17,4.46,4.46,0,0,1-3.15-3.83,11.76,11.76,0,0,1,.41-5.26,5.12,5.12,0,0,1,6.14-3.23A3.73,3.73,0,0,1,101.12,46,8.68,8.68,0,0,1,101.85,50.39ZM95,48.84a40.65,40.65,0,0,0,4.42-.05,4.32,4.32,0,0,0-.25-2.28,2,2,0,0,0-1.82-1.26,1.9,1.9,0,0,0-1.81,1A3.77,3.77,0,0,0,95,48.84Z" transform="translate(-51.88 -0.84)"/><path class="cls-2" d="M135.14,75.16c0,.76-.09,1.36-.07,2s.14,1.15.23,1.82a12.62,12.62,0,0,1-2.75,0,11.82,11.82,0,0,0,.3-3.95q0-3.24,0-6.49c0-.9-.09-1.8-.15-2.8a10.44,10.44,0,0,1,2.21-.08l.34,1.11.51-.42a3.12,3.12,0,0,1,4.82.63,6.58,6.58,0,0,1,.86,4.64,6.69,6.69,0,0,1-1,2.72,3.4,3.4,0,0,1-4.57,1.22C135.71,75.43,135.5,75.34,135.14,75.16Zm0-7.22v5.72a2,2,0,0,0,3.52-.42,5.24,5.24,0,0,0,.59-2.89,5.83,5.83,0,0,0-.65-2.2,1.84,1.84,0,0,0-2.94-.61C135.54,67.65,135.4,67.78,135.18,67.94Z" transform="translate(-51.88 -0.84)"/><path class="cls-2" d="M96.36,61.64v2.5l-.67-.59a4.82,4.82,0,0,0-4.88-1,4.21,4.21,0,0,0-2.43,2A7.5,7.5,0,0,0,87.74,71a4.91,4.91,0,0,0,8.11,2l.67-.64-.36,2.56a5.44,5.44,0,0,1-2.17.8,8.32,8.32,0,0,1-4.74-.18,6.8,6.8,0,0,1-4.36-5,8.2,8.2,0,0,1,0-4.34A7.5,7.5,0,0,1,91,61,9.91,9.91,0,0,1,96.36,61.64Z" transform="translate(-51.88 -0.84)"/><path class="cls-2" d="M106.49,75.78h-2.65a19,19,0,0,0,.24-2c0-1.88,0-3.77,0-5.65a1.2,1.2,0,0,0-1.6-1.18,3.55,3.55,0,0,0-.64.17,1.84,1.84,0,0,0-1.27,1.82c0,1.11,0,2.22,0,3.33a9.72,9.72,0,0,0,.33,3.53H98a7.13,7.13,0,0,0,.43-3.22V64.8A8,8,0,0,0,98,61.51l2.94-.63c-.66,2-.34,3.91-.39,5.83a4.12,4.12,0,0,0,.09.47c.33-.38.58-.65.83-.93a2.74,2.74,0,0,1,.38-.44,3.94,3.94,0,0,1,3.69.27,2.22,2.22,0,0,1,.67,1.72c0,1.5,0,3,0,4.49C106.28,73.44,106.4,74.59,106.49,75.78Z" transform="translate(-51.88 -0.84)"/><path class="cls-2" d="M160.4,75.78h-2.84c.06-.22.11-.39.14-.56a10.42,10.42,0,0,0,.26-1.63c0-1.94,0-3.88,0-5.82a17.67,17.67,0,0,0-.3-2.08h2.41l.11,1.38c.59-.27.8-.8,1.15-1.3a4.49,4.49,0,0,1,3.19-.09,2,2,0,0,1,1.3,2c0,1.64,0,3.27,0,4.9a8.53,8.53,0,0,0,.41,3.15h-2.88c.51-1.69.23-3.36.29-5,0-.83,0-1.66,0-2.49a1.2,1.2,0,0,0-1.3-1.29,1.95,1.95,0,0,0-2.18,1.75c0,1.88,0,3.77,0,5.65A9.58,9.58,0,0,0,160.4,75.78Z" transform="translate(-51.88 -0.84)"/><path class="cls-2" d="M90.4,38.51a17.43,17.43,0,0,0-.49,5.64q0,4,0,8.07a8.59,8.59,0,0,0,.51,4.07H86.91c.66-2,.3-4.14.34-6.22,0-3.08,0-6.15,0-9.23,0-.76-.14-1.53-.22-2.31A9.41,9.41,0,0,1,90.4,38.51Z" transform="translate(-51.88 -0.84)"/><path class="cls-2" d="M80.85,38.44h3.48c-.1.51-.22,1-.28,1.46a11.36,11.36,0,0,0-.14,1.65q0,5.78,0,11.56a5.38,5.38,0,0,0,.48,3.06,10.54,10.54,0,0,1-3.56.09,7.74,7.74,0,0,0,.42-3.66c0-3.16,0-6.32,0-9.48A13.6,13.6,0,0,0,80.85,38.44Z" transform="translate(-51.88 -0.84)"/><path class="cls-2" d="M166.6,65.64h2.67c.88,2.06,1.71,4,2.54,5.91a35.48,35.48,0,0,0,2.29-5.83,3.87,3.87,0,0,1,2.43,0c0,.12,0,.21,0,.27-.57,1.2-1.2,2.37-1.73,3.58-1,2.36-2,4.75-3.06,7.11a8.37,8.37,0,0,1-1.12,1.62,2.3,2.3,0,0,1-2.61.66,11.53,11.53,0,0,0,2.82-4.64C169.4,71.51,168.37,68.43,166.6,65.64Z" transform="translate(-51.88 -0.84)"/><path class="cls-2" d="M108.92,67.8l.41-1.72c.2-.09.41-.22.64-.3a6.66,6.66,0,0,1,3.28-.24,2.46,2.46,0,0,1,2.1,2.7c0,1.27,0,2.55,0,3.82a8.92,8.92,0,0,0,.37,3.7,15,15,0,0,1-2.41,0l-.25-1-1.47,1.13a3.68,3.68,0,0,1-2.26-.3,2.51,2.51,0,0,1-.33-4.36,17.49,17.49,0,0,1,2.49-1.12c.28-.12.58-.19.86-.31a1.34,1.34,0,0,0,.5-.27c.54-.59.32-1.26.13-1.89A1,1,0,0,0,111.9,67a4.1,4.1,0,0,0-2.1.41Zm4.25,3.5h-1.69c-.89,0-1.23.35-1.29,1.24a5,5,0,0,0,0,.67,1.3,1.3,0,0,0,1.24,1.29,3.66,3.66,0,0,0,.74,0,1,1,0,0,0,1-.93C113.21,72.88,113.17,72.16,113.17,71.3Z" transform="translate(-51.88 -0.84)"/><path class="cls-2" d="M74.47,75.67H73.09l-.27-.54a1.43,1.43,0,0,0-.21.12,2.36,2.36,0,0,1-2.72.29,2.57,2.57,0,0,1-1.51-2.39,4.11,4.11,0,0,1,1.07-3.28A3.27,3.27,0,0,1,72,68.81c.27,0,.54,0,.89,0a10.6,10.6,0,0,0-.07-3.08h1.8A99.24,99.24,0,0,0,74.47,75.67Zm-1.59-5.38a1.66,1.66,0,0,0-2.83.51,3.69,3.69,0,0,0-.21,2.11,2.18,2.18,0,0,0,2,1.9l1.09-.48Z" transform="translate(-51.88 -0.84)"/><path class="cls-2" d="M143,65.69a4.51,4.51,0,0,1,2.57,0c-.46,2.54-.18,5.08-.23,7.61a21,21,0,0,0,.21,2.42h-2.8a7.19,7.19,0,0,0,.41-3.36c0-1.24,0-2.49,0-3.73C143.16,67.71,143.08,66.75,143,65.69Z" transform="translate(-51.88 -0.84)"/><path class="cls-2" d="M81.46,72.47H77.54a1.67,1.67,0,0,0,.55,1.93c1,.88,2,.21,3.09-.22l-.45,1.16a3.37,3.37,0,0,1-4.16-.44c-.07-.08-.15-.16-.22-.25-.76-1-.64-4.21.51-5.23a2.53,2.53,0,0,1,4.33,1.19C81.33,71.16,81.35,71.74,81.46,72.47Zm-3.95-1A7.52,7.52,0,0,0,80,71.39c0-1.24-.48-1.87-1.21-1.86S77.5,70.26,77.51,71.45Z" transform="translate(-51.88 -0.84)"/><path class="cls-2" d="M96.35,39.52c.62,1,1.2,1.88,1.77,2.79a1.73,1.73,0,0,1,.15.35H96.81l-3.24-3.07A26.26,26.26,0,0,1,96.35,39.52Z" transform="translate(-51.88 -0.84)"/><path class="cls-2" d="M144.29,61.5a1.28,1.28,0,0,1,1.35,1.34,1.41,1.41,0,0,1-1.34,1.32,1.31,1.31,0,0,1-1.3-1.4A1.15,1.15,0,0,1,144.29,61.5Z" transform="translate(-51.88 -0.84)"/><path class="cls-3" d="M165.48,37s.07,0,0,0,0,0,0,0Z" transform="translate(-51.88 -0.84)"/><path class="cls-4" d="M188.12,45H167.48V34H145.2V45H128.4l-.05-.95c1.76-.05,3.47,0,5.17,0H144c0-.31.07-.55.07-.79,0-2.91,0-5.82,0-8.74a7.59,7.59,0,0,0-.38-1.55H149l5.77-3.56.41-2-.27-.57c0-.05,0-.12.08-.14a1.87,1.87,0,0,0,1-1.77c.08-1.6,0-3.22,0-4.82a3.69,3.69,0,0,0-.26-.92l.61-.18V17.61l-.6-.22,1.14-1.52a12.85,12.85,0,0,0,.14-1.48,2.76,2.76,0,0,1,.65-2.06l.15-5.53-.9-.12c0-.68.64-.25.85-.51s-.17-.94.48-1.3l.17,1.25c.21.32.83-.12.92.54l-.94.13c.05,1.8.11,3.61.16,5.52a3.43,3.43,0,0,1,.76,2.48,2.71,2.71,0,0,0,.78,1.86c.17.17.31.38.53.64l-.68.18v1.85l.44.39c0,.91-.06,1.75-.07,2.6,0,.47,0,.94,0,1.41a7.93,7.93,0,0,0,.48,2.94,4.37,4.37,0,0,0,.52.84,6.38,6.38,0,0,0,.34,2.78l4.08,2.59H168L171.64,36l-.43.7V44H187l1.17,0ZM157.4,28.56l-6.93,4.26h11.61Zm-.7-3.72H159c0-.7,0-1.33,0-2s0-1.3,0-1.95H156.7Zm2.89,2.57h-3.75l-.25,1.4,1.89-1.12,2.34,1.44Zm-1.51-14.35c-.49.36-.39.86-.42,1.31a4.08,4.08,0,0,1-.51,2.36h1.78l-.47-.79c0-.47,0-1,0-1.46S158.61,13.47,158.08,13.06Zm-1.9,13.42a8.46,8.46,0,0,0,3.18-.05l-.25-.84h-2.56Zm2.57-8.93h-1.57A2.24,2.24,0,0,0,157.1,19h1.65ZM159,19.8h-2.29v.51H159Z" transform="translate(-51.88 -0.84)"/><path class="cls-4" d="M161.26,57.29l-1.45,1.38h0a.1.1,0,0,1-.05-.06.88.88,0,0,1,0-.16,2.09,2.09,0,0,1,0-.25V39.31c0-.06,0-.11,0-.17l0-.08a.74.74,0,0,0-.06-.18c-1.13-.09-2.44.18-3.33-1h-1.69c-1,1.08-2.25,1-3.61.91l-.32-.57c.09-.08.12-.14.16-.15a7.79,7.79,0,0,1,1.08,0,2.42,2.42,0,0,0,2.34-.88l1.22-.27.88.24c.85,1,2,1,3.27.87l.36-.51c-1.27,0-2.56.2-3.17-1l-1.36-.59-1.35.61c-.86,1.4-2.4.84-3.81.92l-.32-.55h2.71l2-1.37.07.09.78-.82.58.87.15-.17c.46.33,1,.62,1.39,1a1.34,1.34,0,0,0,1,.38c.31,0,.62,0,.92,0a3.77,3.77,0,0,1,2.57,1,1.33,1.33,0,0,1-.14.36,3.59,3.59,0,0,0-.64,2.5c0,5.22,0,10.43,0,15.64Z" transform="translate(-51.88 -0.84)"/><path class="cls-4" d="M151.33,58.77V39.58a45.07,45.07,0,0,1,7-.07v1.21h-6.17V57.94Z" transform="translate(-51.88 -0.84)"/><path class="cls-4" d="M184.76,47.8h2v1l-1.29.09v3.17l-.61.66A17.65,17.65,0,0,1,184.76,47.8Z" transform="translate(-51.88 -0.84)"/><path class="cls-4" d="M181.4,47.8v1l-1.26.1c-.16,1,0,2.07-.1,3.11l-.7.7V47.8Z" transform="translate(-51.88 -0.84)"/><path class="cls-4" d="M148.43,47.81v1l-1.28.11v3.18l-.76.57V47.81Z" transform="translate(-51.88 -0.84)"/><path class="cls-4" d="M137.62,47.81v1l-1.26.1c-.16,1,0,2.07-.1,3.17l-.69.65V47.81Z" transform="translate(-51.88 -0.84)"/><path class="cls-4" d="M170.57,47.82v1l-1.24.09v3l-.65.73-.13-.08V47.82Z" transform="translate(-51.88 -0.84)"/><path class="cls-4" d="M165.2,47.79v1l-1.3.1V52l-.73.58V47.79Z" transform="translate(-51.88 -0.84)"/><path class="cls-4" d="M147.07,58.18l-.71.66V53.91h2v1l-1.3.14Z" transform="translate(-51.88 -0.84)"/><path class="cls-4" d="M130.17,47.8h2.06v1l-1.32.11V52.1l-.56.52-.18-.06C130.14,51,130.15,49.43,130.17,47.8Z" transform="translate(-51.88 -0.84)"/><path class="cls-4" d="M174.67,52l-.59.55a21.15,21.15,0,0,1,0-4.78H176v1l-1.28.09Z" transform="translate(-51.88 -0.84)"/><path class="cls-4" d="M143,47.82v1l-1.28.1v3.23l-.68.47V47.82Z" transform="translate(-51.88 -0.84)"/><path class="cls-4" d="M156.38,53.88h1.85v.77l-1.21.12v3.37l-.64.67Z" transform="translate(-51.88 -0.84)"/><path class="cls-4" d="M155.19,54.66l-1.32.1v3.52l-.39.38c-.32-.15-.38-3.44-.19-4.75h1.83Z" transform="translate(-51.88 -0.84)"/><path class="cls-4" d="M153.87,52l-.61.64V47.88h1.87l.05.78-1.31.12Z" transform="translate(-51.88 -0.84)"/><path class="cls-4" d="M156.37,47.86h1.86l.07.79-1.29.13c-.11,1.07,0,2.17-.07,3.35l-.57.42Z" transform="translate(-51.88 -0.84)"/><path class="cls-4" d="M157,45.86l-.62.66V42.07h1.85l.08.76L157,43Z" transform="translate(-51.88 -0.84)"/><path class="cls-4" d="M155.2,42.84l-1.32.1v3l-.47.43c-.1-.07-.17-.1-.17-.13,0-1.3,0-2.59,0-3.89a1.39,1.39,0,0,1,.09-.35h1.8Z" transform="translate(-51.88 -0.84)"/><path class="cls-4" d="M148.91,37.08c-.5-.21-1-.39-1.44.07a.81.81,0,0,0-.26.9,1,1,0,0,0,1.21.64,1.31,1.31,0,0,1-1.91-.29,1.37,1.37,0,1,1,2.4-1.32Z" transform="translate(-51.88 -0.84)"/><path class="cls-4" d="M165.47,37a3.64,3.64,0,0,0-.47-.14,1,1,0,0,0-1.18.75.92.92,0,0,0,.81,1.06l.34,0a1.27,1.27,0,0,1-1.86-.41,1.37,1.37,0,0,1,.44-1.82,1.31,1.31,0,0,1,1.93.52Z" transform="translate(-51.88 -0.84)"/><path class="cls-4" d="M159.08,32H157.4l-1.12-.92c-.87.21-1.43,1.22-2.62.88l3.18-2Z" transform="translate(-51.88 -0.84)"/></svg>