<svg id="Desjardins" xmlns="http://www.w3.org/2000/svg" viewBox="0 0 210.98 45.54"><defs><style>.cls-1{fill:#40403f;}</style></defs><title>desjardins</title><path class="cls-1" d="M76,27.36H67.26V52.68h8.83c8,0,13.08-5,13.08-12.66S83.79,27.36,76,27.36Zm-.14,21.06H72.54V31.79h3.55c4.71,0,8,3.55,8,8.4A7.91,7.91,0,0,1,75.81,48.42Z" transform="translate(-14.51 -17.23)"/><path class="cls-1" d="M14.51,28.62V51.38L34.27,62.77,54,51.38V28.62L34.27,17.23Zm34.11,3.13V48.39L34.24,56.65l-14.39-8.4V31.75l14.39-8.26Z" transform="translate(-14.51 -17.23)"/><path class="cls-1" d="M190.07,29.64a2.71,2.71,0,1,1-2.71-2.71A2.79,2.79,0,0,1,190.07,29.64Zm-.42,5.66h-4.54V52.68h4.54Z" transform="translate(-14.51 -17.23)"/><path class="cls-1" d="M118.22,42c-2-.7-2.57-1.12-2.57-2,0-.71.57-1.27,1.73-1.27a6.13,6.13,0,0,1,4.11,2l2.57-2.85a9,9,0,0,0-6.68-2.85c-3.7,0-6.26,2.14-6.26,5.13,0,3.41,2.7,4.86,5.27,5.7.28.14.56.14.85.28,1.4.42,2.28.71,2.28,1.58,0,.57-.28,1.27-2.14,1.27a5.15,5.15,0,0,1-4.26-2.14l-2.71,2.84a8.68,8.68,0,0,0,7,3.13c4.11,0,6.68-2,6.68-5.27S121.91,43.43,118.22,42Z" transform="translate(-14.51 -17.23)"/><path class="cls-1" d="M219.65,42c-2-.7-2.57-1.12-2.57-2,0-.71.56-1.27,1.72-1.27a6.16,6.16,0,0,1,4.12,2l2.57-2.85a9,9,0,0,0-6.69-2.85c-3.69,0-6.26,2.14-6.26,5.13,0,3.41,2.71,4.86,5.28,5.7.28.14.56.14.84.28,1.41.42,2.29.71,2.29,1.58,0,.57-.28,1.27-2.15,1.27a5.14,5.14,0,0,1-4.25-2.14l-2.71,2.84a8.66,8.66,0,0,0,7,3.13c4.12,0,6.69-2,6.69-5.27S223.38,43.43,219.65,42Z" transform="translate(-14.51 -17.23)"/><path class="cls-1" d="M132.29,29.64a2.71,2.71,0,0,1-5.42,0,2.61,2.61,0,0,1,2.71-2.71A2.79,2.79,0,0,1,132.29,29.64Zm-5.38,29.72c3,0,5-2,5-6.12V35.3h-4.57V53.1c0,1.58-.7,2.43-1.72,2.43a3.47,3.47,0,0,1-1.59-.42l-.7,3.83a13.25,13.25,0,0,0,3.59.42Z" transform="translate(-14.51 -17.23)"/><path class="cls-1" d="M146.53,36.32a8.36,8.36,0,0,0-4.71-1.26,7.8,7.8,0,0,0-6.54,2.85c.28.28,2.28,2.42,2.71,2.85a4.25,4.25,0,0,1,2.42-1.87,3.14,3.14,0,0,1,1.13-.14,5.55,5.55,0,0,1,1.58.28,2.44,2.44,0,0,1,1.72,2.43v1.12a11.29,11.29,0,0,0-3.83-.7c-3.69,0-6.4,2.43-6.4,5.56a5.4,5.4,0,0,0,5.7,5.41A6.13,6.13,0,0,0,144.7,51h.14v1.58h4.26V41.18A5.4,5.4,0,0,0,146.53,36.32ZM144.81,47c0,.85-1.87,2.29-4,2.29a2.12,2.12,0,0,1-2.28-2c0-.7.42-2.14,2.71-2.14a14.11,14.11,0,0,1,3.55.56V47Z" transform="translate(-14.51 -17.23)"/><path class="cls-1" d="M157.47,37.31h0l-.14-2h-4.54V52.68h4.54V44.84c0-3.13,1.58-5.28,5.41-5.28V35A6.23,6.23,0,0,0,157.47,37.31Z" transform="translate(-14.51 -17.23)"/><path class="cls-1" d="M177,51.13h.14v1.58h4.25V27.39h-4.53v9.39h-.14c-.85-1.12-3-1.72-4.4-1.72-5.56,0-8.4,4.54-8.4,9a9,9,0,0,0,2.56,6.54A8.29,8.29,0,0,0,172.31,53,8,8,0,0,0,177,51.13Zm-4.43-2.28a4.63,4.63,0,0,1-4.4-4.86,4.65,4.65,0,0,1,4.4-4.85c2.7,0,4.39,2.57,4.39,4.85A4.6,4.6,0,0,1,172.56,48.85Z" transform="translate(-14.51 -17.23)"/><path class="cls-1" d="M198.05,36.75h-.14V35.34h-4.53V52.68h4.53v-9c0-4,2.43-4.54,4-4.54,2.57,0,3.55,2.15,3.55,4.12v9.39H210V43.29c0-5.14-2.85-8.27-7.39-8.27C199.32,35,198.05,36.75,198.05,36.75Z" transform="translate(-14.51 -17.23)"/><path class="cls-1" d="M108.69,43.85c0-5.13-3.55-8.83-8.55-8.83s-8.54,3.7-8.54,9a8.58,8.58,0,0,0,9,9A9.34,9.34,0,0,0,108,49.83c-.28-.42-2.28-2.43-2.71-2.85A5.81,5.81,0,0,1,101,49a4.4,4.4,0,0,1-4.54-3.56h12.24ZM96.31,42.16a3.94,3.94,0,0,1,4-3.27,3.71,3.71,0,0,1,3.84,3.27Z" transform="translate(-14.51 -17.23)"/></svg>