<svg id="FEEP" xmlns="http://www.w3.org/2000/svg" viewBox="0 0 219.52 71.63"><defs><style>.cls-1{fill:#595959;}.cls-2{fill:#8e8e8e;}.cls-3{fill:#7b7b7b;}.cls-4{font-size:17px;fill:#333;font-family:CorporateABQ-Regular, Corporate A BQ;}</style></defs><title>feep</title><g id="Se5cIt"><path class="cls-1" d="M30.7,1.29h.63l4.72,2.35L48.72,10a8.31,8.31,0,0,1,2.72,2.38c.45.55,1,1,1.43,1.55.67.72,1.28,1.48,1.88,2.26.4.53.89,1,1.32,1.51q1.38,1.66,2.61,3.43c.83,1.19,1.63,2.4,2.43,3.6S62.62,27,63.3,28.2c.57,1,1.22,1.91,1.83,2.87a6.92,6.92,0,0,1,.38.77h-7.7a49.45,49.45,0,0,0-9.56-12.1H33.15a7,7,0,0,0,1.17,1.52c.91,1.16,1.9,2.25,2.74,3.46.61.87,1.3,1.68,1.91,2.55a48.79,48.79,0,0,1,2.71,4.27,1.21,1.21,0,0,1,0,.3H36.65a7.21,7.21,0,0,1-.8-1.08,25.28,25.28,0,0,0-2.38-3.52c-.82-1.09-1.66-2.14-2.55-3.17-.54-.64-1.18-1.18-1.68-1.85a34.53,34.53,0,0,0-3.34-3.5c-1.12-1.13-2.26-2.23-3.47-3.25-.69-.58-1.32-1.22-2-1.82-.35-.31-.75-.57-1.09-.83v-.65C20.54,11,21.68,9.68,23,8.58s2.23-2.16,3.36-3.22c.76-.72,1.47-1.49,2.23-2.21S29.93,2,30.7,1.29Z" transform="translate(-17.8 -1.29)"/><path class="cls-2" d="M46.24,53c-.55.18-1,.35-1.47.49-.9.27-1.81.5-2.71.79-1.44.46-2.91.84-4.35,1.32-.66.21-1.33.44-2,.6s-1.27.44-1.92.58c-1.46.33-2.86.83-4.3,1.23-1,.28-2.08.63-3.18,1A31.52,31.52,0,0,1,24,56.53c-.81-1-1.83-1.82-2.64-2.83-.93-1.16-2-2.15-3.06-3.23a1.33,1.33,0,0,1-.45-1.14c.13-.11.37-.28.58-.49,3.7-3.69,7.36-7.42,11.11-11.06a13.51,13.51,0,0,1,3.13-2.59,9.39,9.39,0,0,1,2.75-1.72h5.69c-1.19.7-2.27,1.28-3.3,2-.7.45-1.33,1-2,1.54-.89.65-1.57,1.53-2.43,2.19s-1.37,1.27-2,1.9-1.28,1.27-2,2H45.51c.64-.61,1.32-1.39,2.12-2s1.43-1.4,2.21-2c1-.82,1.91-1.78,2.95-2.57A26.11,26.11,0,0,1,56.21,34c.16-.09.29-.26.45-.32a2.54,2.54,0,0,1,.87-.28c2.42,0,4.84,0,7.26,0a1.44,1.44,0,0,1,.32.07l-1.55,1.1a11.53,11.53,0,0,0-1.14.79c-1,.88-2,1.67-3,2.52a27.71,27.71,0,0,0-2.64,2.55c-.89,1-1.81,2-2.6,3.12-.62.88-1.39,1.65-2.06,2.49s-1.23,1.65-1.88,2.45c-.53.64-1.17,1.2-1.64,1.87A32.83,32.83,0,0,1,46.24,53Z" transform="translate(-17.8 -1.29)"/><path class="cls-1" d="M61.92,71.58l-.33.34c-.24-.07-.5-.17-.77-.23s-.52.11-.72-.15c0,0-.12,0-.18-.05-1.05-.07-2.1-.16-3.15-.18a9.53,9.53,0,0,0-1.29.18c-.4,0-.84-.1-1.2.2a13.49,13.49,0,0,0-3,.44c-.93.11-1.87,0-2.77.18a13.41,13.41,0,0,1-2.2.16L46,72.18c.08-.29-.12-.62.15-1,.1-.12,0-.37,0-.56a11.25,11.25,0,0,1,0-2.25,19.41,19.41,0,0,0,.16-3.65c0-1.24,0-2.48,0-3.72,0-.43-.15-.86-.18-1.3a4.72,4.72,0,0,0,0-1.36,9.43,9.43,0,0,1-.2-1.93,6.62,6.62,0,0,0,.71-.46c.44-.35.88-.71,1.3-1.1s.66-.64,1-1a25.61,25.61,0,0,0,2-2.38c.75-1,1.52-1.93,2.24-2.92.91-1.26,2-2.4,2.8-3.73.23-.37.6-.63.84-1,.4-.61,1-1.09,1.43-1.67.73-1,1.67-1.71,2.41-2.64a13.8,13.8,0,0,1,1.77-1.89C63.38,37,64.14,36.1,65,35.4c.58-.47,1.1-1,1.63-1.48a1.49,1.49,0,0,1,1.08-.48h5s.11,0,.21.1a1.77,1.77,0,0,1-.15.31c-.6.67-1.23,1.31-1.79,2-1,1.23-1.92,2.52-2.8,3.84a46.13,46.13,0,0,0-3.5,6.49,22,22,0,0,0-1.8,5.24c-.09.51-.29,1-.37,1.51a3.55,3.55,0,0,0-.21,1.48c-.46.57.08,1.34-.39,1.9V71.58Z" transform="translate(-17.8 -1.29)"/><path class="cls-3" d="M87.63,9.16l1.84,1.93c1.76,1.82,3.52,3.64,5.26,5.47a5.94,5.94,0,0,1,.58.81,3.76,3.76,0,0,1-1.74,1.12c-.62.31-1.21.68-1.85,1a8.85,8.85,0,0,0-1.77.94c-.51.37-1.12.6-1.67.92-1.59.92-3.16,1.86-4.68,2.9-1,.68-2,1.33-3,2a10.53,10.53,0,0,0-1.1.9,40.05,40.05,0,0,0-3.58,3.18c-.44.5-.86,1-1.28,1.52H68.28a10.57,10.57,0,0,1,1.55-1.68c.52-.55,1.06-1.07,1.59-1.6L73,27c.55-.56,1.1-1.12,1.66-1.67a13.54,13.54,0,0,1,1.64-1.47A17.29,17.29,0,0,0,78,22.38a20.63,20.63,0,0,1,1.66-1.44c.6-.41,1.13-.88,1.87-1.42h-.93c-.65,0-1.3,0-2,0-1.86.06-3.73.16-5.6.19s-3.79,0-5.68,0a1.27,1.27,0,0,0-.86.29c-.94.89-2.17,1.41-3,2.4a4.47,4.47,0,0,1-.82.56l-2.08-3,1.08-.86a6.48,6.48,0,0,1,1-.85,10.73,10.73,0,0,0,1.25-1c1.19-.91,2.3-1.93,3.54-2.79a2.61,2.61,0,0,1,.68-.27,27.34,27.34,0,0,1,2.72-.77c.83-.18,1.64-.45,2.46-.67.62-.17,1.23-.34,1.85-.49,1-.27,2.09-.47,3.1-.81.67-.22,1.35-.36,2-.55.88-.26,1.78-.42,2.65-.7s1.59-.4,2.37-.67c.45-.16,1-.23,1.42-.36A3.27,3.27,0,0,1,87.63,9.16Z" transform="translate(-17.8 -1.29)"/></g><text class="cls-4" transform="translate(79.56 19.2)">Fédération<tspan x="0" y="16">des établissements</tspan><tspan x="0" y="32">d’enseignement</tspan><tspan x="0" y="48">privés</tspan></text></svg>