<svg id="Harmonia" xmlns="http://www.w3.org/2000/svg" viewBox="0 0 200.31 64.01"><defs><style>.cls-1{font-size:23.81px;fill:#282828;font-family:OpenSans-Bold, Open Sans;font-weight:700;}.cls-2{font-size:31.74px;font-family:OpenSans-Semibold, Open Sans;font-weight:600;}.cls-3{fill:#444545;}.cls-4{fill:#848484;}</style></defs><title>harmonia</title><text class="cls-1" transform="translate(0 45.13)">H<tspan class="cls-2" x="18.22" y="0">a</tspan><tspan x="36.63" y="0">RMONI</tspan><tspan class="cls-2" x="120.98" y="0">a</tspan></text><text x="-17.72" y="-3.99"/><path class="cls-3" d="M165.88,38.69s10.84-8.6,19.07,7.85,4.86,19.82,3.36,20.94-6.81,1-10.09-6.36c-1.5-3.36-.75-4.48.74-6.35C172.23,54,167.75,45.79,165.88,38.69Z" transform="translate(-17.72 -3.99)"/><path class="cls-4" d="M204.53,4.57a1.26,1.26,0,0,0-2-.15c-4.35,4.94-19.67,23.2-17.2,31.28,4.11,13.46,16.51,31.6,25.05,29.16,5.24-1.49,9.14-7.58,7.11-12.34-2.24-5.21-1.88-5.6-7-10a.21.21,0,0,1-.08-.17c0-7,5.24-7.25,3-16.34A89.63,89.63,0,0,0,204.53,4.57Z" transform="translate(-17.72 -3.99)"/></svg>