<svg id="Hermes" xmlns="http://www.w3.org/2000/svg" viewBox="0 0 224.06 72.05"><defs><style>.cls-1{fill:#111;}</style></defs><title>hermes</title><path class="cls-1" d="M43.52,4c1,.62,2,1.29,3,1.83s2.41,1.11,3.61,1.69c4.07,2,8.14,4,12.22,6,2.59,1.26,5.2,2.5,7.8,3.74s5.06,2.36,7.57,3.56c.23.12.52.49.49.68s-.41.45-.67.53a3.48,3.48,0,0,1-1,0H7.18l-.09-.77c.91-.53,1.79-1.1,2.73-1.57,2.29-1.14,4.62-2.23,6.93-3.36l12.5-6.11c3-1.47,6-2.91,9-4.37C39.2,5.39,40.1,5,41,4.48A2.76,2.76,0,0,0,41.57,4Z" transform="translate(-2.94 -3.97)"/><path class="cls-1" d="M39.28,31.92,37,32.27a2.47,2.47,0,0,0-.28,2.24,2.87,2.87,0,0,1,0,1.1v7.51h12a81.23,81.23,0,0,1,.06-10.71l-2.5-.54-.82-1.37.88-1.35h12c1.12.65.65,1.69.59,2.66-.91.53-2-.14-2.87.73V60.65a10.19,10.19,0,0,0,1.09.2,9.15,9.15,0,0,0,1,0c1.12.48.81,1.39.84,2.23l-.87.93H46.38l-.93-1.35.8-1.63c1-.4,1.93.2,2.5-.55-.06-.87-.14-1.64-.15-2.41,0-3,0-5.94,0-8.91V47.44H36.85c-.08,4.29-.15,8.53-.21,12.77,0,.2.18.4.3.65H39.1a2.4,2.4,0,0,1,.68,2.38l-.85.79H27.13l-.9-1,.46-2,2.61-.3V32.56c-.6-.78-1.53-.4-2.45-.61l-.78-1.45c.73-1.51,1.57-1.93,3.09-1.59a7.07,7.07,0,0,0,1.36.19c2.31,0,4.62-.09,6.94-.13.12,0,.25.08.38.09C39.9,29.27,40.32,30.06,39.28,31.92Z" transform="translate(-2.94 -3.97)"/><path class="cls-1" d="M80.46,76H4.82c-2.25-1.57-2.71-3.46-.1-5.37l.89,0c11.53-.58,23.08-.2,34.62-.26s23,0,34.53,0c1.93,0,3.86.22,5.75.34,1.31,1,2.59,2,1.56,3.85Z" transform="translate(-2.94 -3.97)"/><path class="cls-1" d="M12.7,33.73l.83-1.07c-.69-.76-1.08.13-1.54.21-2-.8-2.15-2-.35-3.71.31,0,.67-.05,1-.05,3.06,0,6.12,0,9.18,0a4.73,4.73,0,0,1,1.35.18A1.76,1.76,0,0,1,24.48,31a2,2,0,0,1-1.13,1.78c-.23.15-.69,0-1-.08s-.42-.33-.68-.56a1,1,0,0,0,0,1.19,3.83,3.83,0,0,1,.65,2.48c0,2.46,0,4.92,0,7.37a13.37,13.37,0,0,1-.22,3A13.53,13.53,0,0,0,22,49c0,2,0,4.08,0,6.12,0,1.79.15,3.57.27,5.35A2.8,2.8,0,0,1,21,63.23c-2.08,0-4.35,0-6.62,0-.61,0-.88-.21-1.64-1Z" transform="translate(-2.94 -3.97)"/><path class="cls-1" d="M71.67,63.24c-2.11,0-4.25,0-6.38,0a2.22,2.22,0,0,1-1.93-1V35.69a4.14,4.14,0,0,1,.45-2.55c.12-.17,0-.49,0-.9L62.5,33l-1.6-1.16V30.37a2.54,2.54,0,0,1,2.22-1.27c1.9,0,3.81,0,5.71,0,1.11,0,2.23.05,3.34,0a2.79,2.79,0,0,1,2.7,1.27v1.18c-.79,1.33-1.81,1.18-3.12.3a10,10,0,0,0,.33,1.24,7.55,7.55,0,0,1,.63,3.08q0,12.31,0,24.63A2.63,2.63,0,0,1,71.67,63.24Z" transform="translate(-2.94 -3.97)"/><path class="cls-1" d="M6.31,24.32a1.38,1.38,0,0,1,1.54-1.06H76.74a2.5,2.5,0,0,1,2,.47V25.2a5.69,5.69,0,0,1-5.07,2.41q-31.17-.06-62.35,0a8.27,8.27,0,0,1-3.24-.93A3.73,3.73,0,0,1,6.31,24.32Z" transform="translate(-2.94 -3.97)"/><path class="cls-1" d="M78,67.92l-1.3,1.17H10.2a6.47,6.47,0,0,1-1.74-.29,1.42,1.42,0,0,1-1.09-1.55c0-.51,0-1,0-1.48A2.07,2.07,0,0,1,9.17,65h64.7l2.09,0c1.44,0,2,.58,2,2C78,67.3,78,67.53,78,67.92Z" transform="translate(-2.94 -3.97)"/><path class="cls-1" d="M156.35,59.83l.19-.9,2.21-.54V36.31l-2.26-.9c.76-1.35.88-1.37,5.46-1.07,3.07,4.92,6.24,10,9.43,15.08,1.15,0,1.33-1.08,1.73-1.72,1.84-2.88,3.54-5.85,5.31-8.77.92-1.52,1.9-3,3-4.69,1.52,0,3.11,0,4.7,0,.6,0,1,.27,1,1.1l-1.87.9v22.1l1.78.56.21.92h-8.83l.23-1,1.68-.29c1-1.58.5-3.22.58-4.79s0-3.21,0-4.82,0-3.2,0-4.81,0-3.11-.06-4.66c-3.62,4.91-6.54,10.12-10,15.21L161.2,39.14V58.39l2.2.54.18.9Z" transform="translate(-2.94 -3.97)"/><path class="cls-1" d="M86.51,34.54a19.62,19.62,0,0,1,2.14-.29c1.74,0,3.48,0,5.22,0,.73,0,1.35.12,1.33,1.18L93,36.28v9.14l4.56,0H102c.51-1.59.21-3.13.27-4.63s0-2.94,0-4.43l-1.94-.94c-.11-.87.31-1.21,1-1.22q3,0,6,0a1.63,1.63,0,0,1,1.62,1.1l-2.42,1V58.15l2.22.8.21.88h-8.83l.23-1c.92,0,1.73-.27,2-1.18-.09-3.24-.21-6.48,0-9.92H93V58.39l2.21.54.18.9H86.51v-1.2a1.83,1.83,0,0,0,2.35-.93c-.1-1.05-.23-1.89-.24-2.73,0-4.47,0-8.93,0-13.39,0-1.2,0-2.4,0-3.6.13-1.87-.09-2.13-2.13-2.23Z" transform="translate(-2.94 -3.97)"/><path class="cls-1" d="M132.67,59.83l.18-.9,2.21-.54V36.5l-2.22-1.12a.85.85,0,0,1,1-1.12c3,.13,6-.31,8.95.29a15.82,15.82,0,0,1,4,.84,5.39,5.39,0,0,1,2.85,2.88,8,8,0,0,1-.68,7.58,9,9,0,0,1-2,1.87,11.81,11.81,0,0,1-1.46.9c.27.57.47,1.11.76,1.6,1.22,2.1,2.4,4.24,3.74,6.27a4.41,4.41,0,0,0,3.74,2.3l.24,1h-9.64l.22-.95c.65-.29,1.58,0,1.83-1.05a3.33,3.33,0,0,0-.18-.49c-1.53-2.68-3.08-5.36-4.6-8-.5-.88-1.18-.9-2.06-.62v9.64l1.81.63.17.88Zm6.73-23c0,1.78,0,3.24,0,4.69s0,3,.06,4.62c1.95-.74,4,.32,5.58-.9,1.11-3.84,1.26-3.73.59-6.19a2.51,2.51,0,0,0-2.41-2.2C142.05,36.8,140.86,36.87,139.4,36.87Z" transform="translate(-2.94 -3.97)"/><path class="cls-1" d="M188.87,59.83c-.07-.92.57-1.44,1.14-2q4.53-4.53,9.08-9.06a18.61,18.61,0,0,1,1.68-1.34L188.72,35.2a6,6,0,0,1,1.09-.91,2.5,2.5,0,0,1,1,0q8.41,0,16.83,0c.39,0,.79.07,1.35.12.5,1.56.2,3.13.21,4.78h-1.45l-.62-2.1c-3.49-.41-7-.07-10.65-.19.74,2.32,2.88,3.1,4.06,4.74a35.28,35.28,0,0,0,4.33,4.31c-.55,1.4-1.87,2.16-2.84,3.22s-2.16,2.18-3.24,3.27-2.05,2.08-3.24,3.29a27.87,27.87,0,0,0,5.55.22c1.73.05,3.46,0,5,0a2.05,2.05,0,0,0,1.28-2.29h1.75l.17,6.21Z" transform="translate(-2.94 -3.97)"/><path class="cls-1" d="M110.19,59.83c-.06-.92.58-1.44,1.15-2l9.07-9.08c.47-.47.92-1,1.33-1.38L111,36.59a3.83,3.83,0,0,1-.28-.29,1.28,1.28,0,0,1-.12-1.78c1.47-.35,17-.43,19.48-.09V39.1l-1.14.16c-.19-1-.33-1.91-1.32-2.32h-10c.68,1.26,6.17,7,8.57,8.91,0,.17,0,.43-.12.54-1.23,1.16-2.48,2.31-3.72,3.46-.19.18-.41.35-.59.54l-4.85,5.28a10.91,10.91,0,0,0,1.48.23c2.54,0,5.09.05,7.63,0a13.68,13.68,0,0,0,2.44-.48L129,53.6h1.12l.17,6.23Z" transform="translate(-2.94 -3.97)"/><path class="cls-1" d="M213.35,59.83c-.38-1.65-1-3.28-.51-5.18.4.19.88.26,1,.52.93,1.6,2.46,2.1,4.13,2.34a4.83,4.83,0,0,0,2.68.1,3,3,0,0,0,2.13-2.09c.73-2.8.33-4.81-2.24-6.05-.71-.34-1.46-.6-2.18-.92a8.2,8.2,0,0,1-5-6.33A6.46,6.46,0,0,1,215,36.44a6.2,6.2,0,0,1,8.23-.9,4.64,4.64,0,0,0,.67.35c0-.38-.09-.69,0-.87s.51-.7.79-.7a1.12,1.12,0,0,1,.87.61c.35,1.19.57,2.41.84,3.63a1,1,0,0,1-1.44,0c-1.74-1.9-3.93-1.94-6.22-1.64a4.42,4.42,0,0,0,.8,7.44c.23.12.47.24.71.34A18.39,18.39,0,0,1,227,49.79v6c-1.31,1.21-2.62,2.43-3.91,3.65-.08.07-.07.24-.1.36Z" transform="translate(-2.94 -3.97)"/><path class="cls-1" d="M86.51,20.49a9.08,9.08,0,0,1,1.54-.29c2.4,0,4.81,0,7.21,0a1.93,1.93,0,0,1,1.9,1v2.34l-2.44.18-.2-1.49c-1.68-.43-3.37-.11-5.17-.19v5.25h5.09l.34-1.73,2.36.42v2.77a3,3,0,0,1-2.29.91c-2.07,0-4.14,0-6.21,0a17.32,17.32,0,0,1-2.13-.3Z" transform="translate(-2.94 -3.97)"/><path class="cls-1" d="M111.92,20.3c1.41,2.18,1,4.56.91,6.85a2.62,2.62,0,0,1-1.4,2.42h-10l-1.2-1.38c.33-2.57-.63-5.27.72-7.89Zm-2,7V22.27a16.13,16.13,0,0,0-6.54.1,19.75,19.75,0,0,0,.16,5Z" transform="translate(-2.94 -3.97)"/><path class="cls-1" d="M209.49,20.3a1.86,1.86,0,0,1,1,1.84c0,2.14,0,4.28,0,6.29a1.92,1.92,0,0,1-2,1.21c-2.6,0-5.21,0-7.81,0-1.81,0-2.39-.61-2.43-2.39,0-1.54-.06-3.08,0-4.61a13.31,13.31,0,0,1,.54-2.32Zm-8.55,1.81v5.27c2.33,0,4.53.1,6.76,0V22.11Z" transform="translate(-2.94 -3.97)"/><path class="cls-1" d="M116.41,20.27h2l4.3,5.16,4.37-5.17h2.17v9.27h-2.46V24.24l-.35-.08c-1.23,1.53-2.45,3.07-3.77,4.73l-4.11-4.77V29.5h-2.15Z" transform="translate(-2.94 -3.97)"/><path class="cls-1" d="M225.8,29.4c-1.53.69-2.47-.31-3.42-1-1.81-1.44-3.56-3-5.34-4.43-.09-.07-.24-.06-.54-.12v5.7H214V20.35a3.5,3.5,0,0,1,3.5.94c1.85,1.54,3.79,3,6,4.68V20.31h2.34Z" transform="translate(-2.94 -3.97)"/><path class="cls-1" d="M149.58,25.71v1.66H157c0,.82,0,1.4,0,2a48.82,48.82,0,0,1-10.1.13c-.1-3,0-6,0-9.18h10.06l.22,1.68h-7.53v1.72h4.06l.26,1.83Z" transform="translate(-2.94 -3.97)"/><path class="cls-1" d="M143.78,21.34c-.06,1.42.44,3.06-.85,4.63h-7.18c-.67,1.21-.19,2.33-.26,3.53h-2.23V20.36a13,13,0,0,1,1.29-.17c2.4,0,4.8,0,7.2,0A1.93,1.93,0,0,1,143.78,21.34Zm-8.27,2.85c2.09-.09,4,.26,5.82-.22V22a53.84,53.84,0,0,0-5.82.06Z" transform="translate(-2.94 -3.97)"/><path class="cls-1" d="M178.23,21.85V20.27h11.2l.14,1.67h-4.28c-.29,2.57,0,5-.18,7.56h-2.54V22.31C181.1,21.69,179.66,22.25,178.23,21.85Z" transform="translate(-2.94 -3.97)"/><path class="cls-1" d="M158.8,20.26h11.39l.08,1.7H166c-.29,2.58,0,5-.2,7.55h-2.54V22.12h-4.21Z" transform="translate(-2.94 -3.97)"/><path class="cls-1" d="M192.28,20.28h2.45c0,1.51.05,3,.06,4.52s0,3.05,0,4.7h-2.51Z" transform="translate(-2.94 -3.97)"/><path class="cls-1" d="M175.42,29.54H173c0-1.52-.05-3-.06-4.53s0-3.05,0-4.7h2.51Z" transform="translate(-2.94 -3.97)"/></svg>