<svg id="Mercedes" xmlns="http://www.w3.org/2000/svg" viewBox="0 0 200.29 58.96"><defs><style>.cls-1{font-size:19px;fill:#333;font-family:CorporateABQ-Regular, Corporate A BQ;}.cls-2{fill:#666;}</style></defs><title>mercedes</title><text class="cls-1" transform="translate(74.83 26.72)">Mercedes-Benz<tspan x="32.3" y="22.8">Québec</tspan></text><g id="_2y3nxb" data-name="2y3nxb"><path class="cls-2" d="M50,10.52A29.61,29.61,0,0,1,79.66,39.88,29.7,29.7,0,1,1,50,10.52Zm.16,4.68h-.46L47.32,37.81,47,38c-.37-.55-1.12-1.15-1.06-1.64.75-5.52,1.62-11,2.45-16.55.32-2.12.64-4.23,1-6.51-10,.62-17.71,5-22.69,13.59S22,44,26.36,52.72c.26-.17.41-.25.55-.36,5.81-4.6,11.63-9.17,17.39-13.82.9-.72,1.49-.74,2.25.16L28.65,52l.1.15L49.5,40.63c0,1.32,0,2.46,0,3.6a1.12,1.12,0,0,1-.89,1.28c-6.43,2.42-12.84,4.89-19.26,7.35-.78.29-1.55.6-2.44,1C32.87,62.37,40.82,67,51.17,66.56c9.21-.38,16.34-4.79,21.56-12.53l-4.57-1.85-17-6.8c-.31-.13-.77-.41-.78-.64-.08-1.31,0-2.62,0-4L71.14,52.08l.12-.18L53.18,38.79,55,37.63l18.49,15a25.82,25.82,0,0,0-.91-26.92c-5.14-7.83-12.53-11.83-22-12.38,0,.44.06.7.1.95Q52.43,25.12,54.16,36c.06.35,0,.93-.17,1.07-1.14.79-2.36,1.48-3.84,2.38ZM23.53,47.88A24.51,24.51,0,0,0,27,55.62C32.93,65,41.56,69.07,52.44,68.25,61,67.6,67.87,63.42,73,56.58a26.21,26.21,0,0,0,5.45-18A28.33,28.33,0,0,0,73.8,25.55a14.61,14.61,0,0,0-1-1.37c-.33-.43-.69-.84-1-1.25,4.78,6.85,6.87,14.28,5.12,22.51A26.82,26.82,0,0,1,63.1,64C47.91,72.44,28.39,64.47,23.53,47.88Zm4.08,9.59c-.43-.67-.87-1.33-1.29-2A24.47,24.47,0,0,1,25,53.26c-4-8.38-4.26-16.85-.27-25.27a26.46,26.46,0,0,1,20-15.29C59.31,10,72,18.63,77,30.37c.6,1.38,1,2.83,1.54,4.25a3,3,0,0,0-.06-1,27.38,27.38,0,0,0-5.66-11.24,29.06,29.06,0,0,0-33.32-9.1C26.21,18.52,16.43,34,23.06,50.19A20.81,20.81,0,0,0,27.61,57.47Z" transform="translate(-20.25 -10.52)"/><path class="cls-2" d="M50.88,40.2l1.49-1L66.8,49.1l-.12.21Z" transform="translate(-20.25 -10.52)"/><path class="cls-2" d="M49.55,22.48V39.13l-.32.18c-.23-.4-.68-.8-.66-1.18.25-5.08.56-10.16.86-15.24C49.44,22.82,49.47,22.75,49.55,22.48Z" transform="translate(-20.25 -10.52)"/><path class="cls-2" d="M49.23,39.86l-5.55,3.25L43.57,43c1.41-1.14,2.79-2.31,4.24-3.38C48,39.43,48.57,39.72,49.23,39.86Z" transform="translate(-20.25 -10.52)"/></g></svg>