<svg id="SLCSA" xmlns="http://www.w3.org/2000/svg" viewBox="0 0 139.9 65.65"><defs><style>.cls-1{fill:#282828;}</style></defs><title>slcsa</title><path class="cls-1" d="M130,56.8c1-.4,1.74-.66,2.44-1a2.07,2.07,0,0,0,1-.88c1.35-3.56,2.62-7.14,4-10.7a13.43,13.43,0,0,1,1.41-2.71c.95-1.4,3.12-1.06,4.35.6.45.62,1,1.19,1.43,1.82s.79,1.31,1.06,1.76a49.47,49.47,0,0,1,4.58-2.08c1.63-.56,3.4-.69,5-1.3a4.49,4.49,0,0,0,3.17-3.12,2.21,2.21,0,0,0-.84-2.22,21.32,21.32,0,0,0-3-2.05,15.47,15.47,0,0,1-4.81-4c0-.08-.13-.14-.17-.22-1.25-2.95-3.93-3.65-6.67-4.16-3-.56-6.08-1-9.1-1.57a23,23,0,0,1-3.06-1,1.76,1.76,0,0,0-2.13.78c-.65,1.09-1.2,2.28-2.61,2.58-1.87.4-3.76.74-5.61,1.22-1.25.32-2.46.86-3.7,1.26-1.54.49-2.38,1.76-3.41,2.87-1.69,1.82-3.51,3.52-5.29,5.26a1.72,1.72,0,0,1-.51.24c.19-2.55.42-5.06.55-7.58a11.29,11.29,0,0,0-.25-2.58,3.34,3.34,0,0,0-2-2.43c.6-1.15,1.62-1,2.55-.93,2,.13,2.83-.29,3.73-2a4.87,4.87,0,0,1,5.2-2.67,10.2,10.2,0,0,0,6.8-1.3,5.74,5.74,0,0,0,1.27-1.45.92.92,0,0,1,1.17-.42,6,6,0,0,0,5.38-.89,11.59,11.59,0,0,1,5.46-1.91c.68-.07,1-.23.79-1-.28-1-.43-2.08-.65-3.2,5.44-.19,10.88.34,15.89-2.45a9.41,9.41,0,0,0,5.79,2c1.52.05,3,.14,4.56.19a3.66,3.66,0,0,1,2.86,1.17,8.15,8.15,0,0,0,4.84,2.75c.93.13.61,1,.81,1.56s.13.91.25,1.35a3.06,3.06,0,0,0,2.08,2.06c0,.67.06,1.39,0,2.1a4.82,4.82,0,0,0,1.92,4.6L185,31.66c1.28,1,2.52,2.07,3.82,3.05s1.34,2.3.95,3.68C189,40.9,188.27,43.46,186,45a48.81,48.81,0,0,1-4.65,2.69,1.81,1.81,0,0,1-1.08,0,3,3,0,0,0-2.73.51,25.29,25.29,0,0,0-2.32,2.42.76.76,0,0,0,.35,1.33c.69.28.66.72.5,1.36a19.1,19.1,0,0,0-.47,2.92,5.32,5.32,0,0,1-2.18,4c-2,1.46-3.85,3-5.78,4.53l-.13.13c-1.16,1.2-1.21,1.25-2.59.2-1-.75-1.83-1.7-2.77-2.51a3.61,3.61,0,0,0-1.34-.68c.32,1.6,1.35,3,.87,4.62l-.41.18a11.58,11.58,0,0,1-1-1.8c-.49-1.36-1.1-1.54-2.13-.51-.78.79-1.53,1.62-2.38,2.33-.53.43-1.06.41-1.09-.51a10.54,10.54,0,0,0-.18-1.47,2.33,2.33,0,0,0-.32-.6c-.17.11-.48.19-.51.33-.37,1.72-1.69,3.2-1,5.2.39,1.11,0,2.28-1.75,2.38-1.5.08-3,.3-4.5.52a2.8,2.8,0,0,1-2.79-1.41,1.16,1.16,0,0,1,.66-1.66c2.42-1.25,2.42-2.74.2-4.46s-4.67-1.71-7.22-1.06a20.85,20.85,0,0,0-3.09,1,4.58,4.58,0,0,0-1.59,1.22c-.42.46-.29,1,.14,1.49a7.89,7.89,0,0,1,1.36,2c.56,1.32.1,2.33-1.29,2.48a12.33,12.33,0,0,1-5.26-.23c-1.24-.39-1.21-1.19-1.17-2.15s.32-1.81,1.38-2a2.14,2.14,0,0,0,1.57-1.56c.91-2.46,1.8-4.94,2.75-7.39.22-.56,0-.8-.41-1S130.71,57.21,130,56.8Zm43.1,1a6.59,6.59,0,0,1-1.12-.43,18.6,18.6,0,0,1-3.74-2.53c-1.88-2-2.12-4.58-1.6-7.24.65-3.32,2.47-5.61,5.86-6.31a9.16,9.16,0,0,1,7.09,1,4.54,4.54,0,0,0,3.84.54c1.58-.46,2.55-1.88,1.9-3.24a8.27,8.27,0,0,0-2-2.82,2.27,2.27,0,0,1-.82-2.52c.57.29,1.05.57,1.56.78a12.37,12.37,0,0,0,2.26.79c.56.11,1.44.28,1.58-.5.08-.38-.51-1.05-1-1.34-2-1.3-4-2.56-6.09-3.74a19.22,19.22,0,0,1-6.58-5.5c-.92-1.31-1.94-2.53-3.68-2.77a32.56,32.56,0,0,0-3.67-.46,2.51,2.51,0,0,0-1.8.75,6,6,0,0,1-2.26,1.73c-1.26.61-2.45,1.31-2.2,3.06-.36,0-.64,0-.91.05-.61.06-1,.44-.77,1A10.39,10.39,0,0,0,160,30.38a31.59,31.59,0,0,0,1.95,2.5c-.63.66-1.76,0-2,1.09a8.58,8.58,0,0,1,2.42,5.2c.19,2.06.11,4.14.23,6.21a9.64,9.64,0,0,1-1.44,5.3c-.55,1-1.23,1.86-1.91,2.88-.21-.32-.29-.39-.3-.47a4.64,4.64,0,0,1,0-.65,15.33,15.33,0,0,1,1.8-6.66,7.27,7.27,0,0,0,.35-4.35,1.48,1.48,0,0,0-.6.59c-.88,1.72-1.72,3.45-2.6,5.16a1.82,1.82,0,0,1-.63.78,1.81,1.81,0,0,0-.8,2.27c.44,1.89,1,3.74,1.46,5.63a1.21,1.21,0,0,0,1.12,1,15.23,15.23,0,0,0,2,0,5.12,5.12,0,0,1,1.74-4.7c0,.37-.06.5-.09.61a5.34,5.34,0,0,0,.55,4.78,1.76,1.76,0,0,1,.17,2.12c-.8-.16-1.29-1.15-2.54-.9a45.51,45.51,0,0,0,2.82,3.74c1.21,1.32,2.12,1.33,3.59.11a12.25,12.25,0,0,1,3.44-2,2.74,2.74,0,0,0,1.8-1.56C172.7,58.73,172.89,58.31,173.12,57.76Zm-36.65-.92a9.4,9.4,0,0,0,6.95.15c.19-.06.38-.53.35-.78-.23-2-.48-3.92-.8-5.86a16.74,16.74,0,0,0-.77-3.12c-.36-1-1.27-1-1.83-.13a8,8,0,0,0-.68,1.52C138.63,51.31,137.58,54,136.47,56.84ZM152.9,16c-.32-.43-.44-.74-.66-.88-1-.64-2.06-.22-3,.21a2.1,2.1,0,0,0-1.17,2.33,15.66,15.66,0,0,0,.81,3.22c.5,1.11.71,2.56,2.23,2.88.39.09,1,0,1.21-.21a1.52,1.52,0,0,0-.08-1.26c-.56-1.14-1.32-2.18-1.82-3.34a3.15,3.15,0,0,1,0-1.85C150.7,16,151.68,15.89,152.9,16ZM174.77,54.7a3,3,0,0,0-.18-.35c-.41-.6-1-.6-2,0s-1.3,1.41-.95,1.94a1,1,0,0,0,.48.39C173,57,174.79,55.7,174.77,54.7Zm-3.1-2.59a2.9,2.9,0,0,0-2.28,1.7c-.15.47.27,1,.73.91a3.14,3.14,0,0,0,2.2-1.56C172.67,52.44,172.46,52.09,171.67,52.11Zm13.84-9.58.43,1c.29-.14.7-.2.86-.44a6.75,6.75,0,0,0,.94-1.78c.09-.26-.21-.65-.33-1-.36.13-.87.16-1,.42A10.83,10.83,0,0,0,185.51,42.53Z" transform="translate(-50.05 -7.18)"/><path class="cls-1" d="M109,66.11c-.09-1.39-.25-2.79-.26-4.18s.08-2.86.19-4.28c.07-.81.53-1.06,1.32-.82a2,2,0,0,1,1.55,1.69c.16,1.12.29,2.26.39,3.4.06.62,0,1.26.06,1.86.35,2,1.93,2.88,4.12,2.52a23.92,23.92,0,0,0,3.16-.65,2.51,2.51,0,0,0,1-4.37q-3.92-4-7.84-8A12.54,12.54,0,0,1,109,44.65c-.17-4,1.69-7.1,3.69-10.22A21.78,21.78,0,0,1,115,31.66c1.11-1.24,2.59-1,4-.85a5.13,5.13,0,0,1,4,2.49c.35.56,1,.44,1.32-.19.6-1.22,1.51-1.33,2.21-.1a6.64,6.64,0,0,1,.69,2.73c.07,1-.14,2.1-.15,3.15,0,2.48,0,5,0,7.44a4.11,4.11,0,0,1-.21,1.26,1,1,0,0,1-1.69.53A3.62,3.62,0,0,1,123.59,45c.06-1.77.18-3.54.19-5.31S122.09,35.57,120,36a7.62,7.62,0,0,0-3,1.48,11.44,11.44,0,0,0-3.59,4.67,4.81,4.81,0,0,0,.78,5.38c2,2.09,4.15,4,6.24,6a57,57,0,0,1,4.14,3.92c1.72,2,1.63,4.42,1,6.87-1,3.82-3.3,6.36-7.19,7.2a5.6,5.6,0,0,1-4.9-.72c-.9-.69-1.44-.34-1.54.78a4.26,4.26,0,0,1-.52,1.21,3.77,3.77,0,0,1-1.17-.65,4.83,4.83,0,0,1-1.39-3.71,22.82,22.82,0,0,0,0-2.34Z" transform="translate(-50.05 -7.18)"/><path class="cls-1" d="M105.93,37.05c0,2.16,0,4.31,0,6.47a1.81,1.81,0,0,1-2,2,1.94,1.94,0,0,1-1.49-2c-.08-1.42-.07-2.86-.21-4.27s-.41-2.68-.68-4c-.38-1.86-1.82-1.6-2.72-.54a26,26,0,0,0-2.92,3.95,42.9,42.9,0,0,0-5,13.51,51.24,51.24,0,0,0-.52,9.66A4.13,4.13,0,0,0,93.34,66a5.05,5.05,0,0,0,3.4-.66,19.51,19.51,0,0,0,7.47-5.42,1.22,1.22,0,0,1,1.11-.29,1.31,1.31,0,0,1,.72,1.73A29.75,29.75,0,0,1,104,65a17.69,17.69,0,0,1-4.85,5.2,6.25,6.25,0,0,1-6.44.45c-3.08-1.38-4.48-4.1-5.16-7.2a34.25,34.25,0,0,1-.76-6.14,25.41,25.41,0,0,1,.46-5.06c.54-3.31,1.06-6.64,1.87-9.89.58-2.35,1.66-4.58,2.42-6.9a11.88,11.88,0,0,1,4.65-5.9,5.57,5.57,0,0,1,2.62-1.1,5.85,5.85,0,0,1,2.51.73c1,.44,1,.49,1.15-.64a5.66,5.66,0,0,1,.22-1,.89.89,0,0,1,1.47-.45,4.31,4.31,0,0,1,1.78,3.43C105.93,32.74,105.93,34.89,105.93,37.05Z" transform="translate(-50.05 -7.18)"/><path class="cls-1" d="M85.59,61c0,1.75-.06,3.5,0,5.25.09,2.09-.46,2.48-2.42,2.91-2.91.65-5.82,1.32-8.7,2.08a3.17,3.17,0,0,1-3.6-1,4.58,4.58,0,0,1-.54-4.44,5.06,5.06,0,0,0,.46-1.95c.06-2.25,0-4.5,0-6.75,0-4.06-.13-8.12-.18-12.17,0-.71.13-1.42.18-2.13a1,1,0,0,0-.95-1.24,3.31,3.31,0,0,1-2.26-2,2.14,2.14,0,0,1,.21-1.88,10.9,10.9,0,0,1,7.1-4A2.3,2.3,0,0,1,77.2,35a3.75,3.75,0,0,1,.35,3.55A3.17,3.17,0,0,1,76,39.89c-1.64.67-1.67.61-1.67,2.4s0,3.51,0,5.26c0,2.61.12,5.23.19,7.84,0,1.84.12,3.67.19,5.51,0,1.08.12,2.17.2,3.25a.72.72,0,0,0,.92.76c1.53-.2,3.06-.38,4.59-.59A2.31,2.31,0,0,0,82.07,62c0-.94,0-1.88,0-2.81.1-1.86.22-3.71.39-5.57.09-1,.75-1.32,1.65-.88a2.41,2.41,0,0,1,1.46,2.38C85.58,57.08,85.59,59.05,85.59,61Z" transform="translate(-50.05 -7.18)"/><path class="cls-1" d="M66.38,44.33c0,1.63,0,3.26,0,4.88,0,.61,0,1.26-.71,1.45a1.63,1.63,0,0,1-2-.71,6.25,6.25,0,0,1-.63-2c-.19-1.19-.22-2.4-.42-3.58s-.87-1.34-1.78-.67A17.19,17.19,0,0,0,56.24,49c-1,1.66-1.66,3.46-2.5,5.19a1,1,0,0,0,.66,1.52c1.59.51,3.21.92,4.8,1.45a38.43,38.43,0,0,1,5.28,2c2.62,1.37,3.19,4,2.24,6.55a7.86,7.86,0,0,1-4.62,5,13.82,13.82,0,0,1-4.64.55,11.27,11.27,0,0,1-2.93-.78c-.69-.21-1,.18-1.14.75-.16.75-.41,1.42-1.28,1.45-.69,0-1.59-1-1.62-1.81-.08-2-.15-4-.19-6.08,0-1.3.34-1.77,1.24-1.77,1.24,0,1.9.58,1.81,1.83-.15,2.14,1.11,2.81,2.9,2.82a9.18,9.18,0,0,0,5.92-1.83c1-.81,1-1.71-.18-2.28-1.6-.76-3.25-1.4-4.87-2.12-1.92-.86-3.85-1.69-5.72-2.66a2.71,2.71,0,0,1-1.31-2.3c-.23-2.21.61-4.16,1.47-6.08a26,26,0,0,1,4.6-7,12.73,12.73,0,0,1,6.06-3.68c.33-.1.61-.48.88-.77a7.48,7.48,0,0,1,1-1.11,1.43,1.43,0,0,1,2.29,1.24C66.4,40.83,66.38,42.58,66.38,44.33Z" transform="translate(-50.05 -7.18)"/><path class="cls-1" d="M172.29,32.36l3-2.08c-.43-1.13-1.08-1.39-2.12-.68a1,1,0,0,1-1.32,0c-.89-.66-1.81-1.29-2.7-2-.53-.39-.43-.85.08-1.1a7.1,7.1,0,0,1,4.16-.62c.22,0,.6.33.6.49,0,1.65,1.35,2.18,2.34,3,.68.57,1.47,1,2.15,1.59a9.65,9.65,0,0,1,1,1.25c-1.26,0-2.41,0-3.57,0s-2.33.15-3.49.24Z" transform="translate(-50.05 -7.18)"/><path class="cls-1" d="M166.68,57a3.83,3.83,0,0,1-2.42-4A6.83,6.83,0,0,1,166.68,57Z" transform="translate(-50.05 -7.18)"/></svg>